<svg xmlns="http://www.w3.org/2000/svg" version="1.1" id="svg" width="200" height="220" viewBox="0 0 150 150" preserveAspectRatio="xMidYMin meet" style="border:1px solid #ddd;">
	<defs>
	    <g id="forbidden">
	    	<path d="M-5 -5 L5 5 M-5 5 L5 -5" stroke="#666" stroke-width="1" fill="none"/>
	    </g>
	    <g id="blank_circle">
	    	<circle cx="0" cy="0" r="6" stroke="#666" stroke-width="1" fill="none"/>
	    </g>
	    <g id="block_circle">
	    	<circle cx="0" cy="0" r="8" fill="#333"/>
	    </g>
	  </defs>
    <rect x="25" y=45 rx="5" ry="5" width="100" height="100" style="fill:none;stroke:#666;stroke-width:2"/>
    <path d="
    	M25 65 L125 65 M25 85 L125 85 M25 105 L125 105 M25 125 L125 125
    	M45 45 L45 145 M65 45 L65 145 M85 45 L85 145 M105 45 L105 145
    	M25 40 L125 40
    " stroke="#666" stroke-width="2" fill="none"/>
	<use xlink:href="#forbidden" x="25" y="30" />
	<use xlink:href="#blank_circle" x="125" y="30" />
	<use xlink:href="#blank_circle" x="85" y="30" />
	<use xlink:href="#block_circle" x="105" y="55" />
	<use xlink:href="#block_circle" x="65" y="75" />
	<use xlink:href="#block_circle" x="45" y="95" />
	<text x="67" y="20" fill="#333" font-size="20" font-weight="700">C</text>
	<text x="41.5" y="160" fill="#333" font-size="10" font-weight="700">C</text>
	<text x="61.5" y="160" fill="#333" font-size="10" font-weight="700">E</text>
	<text x="81.5" y="160" fill="#333" font-size="10" font-weight="700">G</text>
	<text x="101.5" y="160" fill="#333" font-size="10" font-weight="700">C</text>
	<text x="121.5" y="160" fill="#333" font-size="10" font-weight="700">E</text>
</svg>